<svg width="496" height="277" xmlns="http://www.w3.org/2000/svg" xmlns:xlink="http://www.w3.org/1999/xlink" xml:space="preserve" overflow="hidden"><defs><clipPath id="clip0"><rect x="0" y="0" width="496" height="277"/></clipPath></defs><g clip-path="url(#clip0)"><path d="M375.233 290.756C363.387 277.853 351.783 265.207 340.169 252.571 339.953 252.335 339.616 252.21 339.011 251.83 336.174 254.561 336.064 259.073 333.029 262.029 328.914 259.372 326.236 255.502 322.981 252.269 319.2 248.513 315.479 244.677 311.996 240.647 309.718 238.011 308.082 238.402 305.953 240.725 302.24 244.778 298.343 248.663 294.515 252.61 293.388 253.772 292.663 255.452 290.227 255.665 287.754 251.923 285.153 247.986 282.151 243.442 267.199 265.265 252.667 286.476 237.738 308.265 228.592 298.599 220.056 289.578 211.476 280.511 208.319 282.292 209.463 286.066 207.034 287.96 204.364 288.017 202.729 285.876 200.753 284.512 195.682 281.01 190.558 277.554 185.75 273.711 182.424 271.054 179.706 270.724 176.009 273.156 169.475 277.455 162.594 281.227 155.852 285.21 154.298 286.128 152.843 287.29 151.039 287.486 148.958 286.271 149.293 283.835 147.526 281.759 132.458 291.573 117.352 301.411 102.139 311.32 100.869 308.874 102.546 308.121 103.478 307.16 128.772 281.089 154.084 255.034 179.403 228.986 184.596 223.644 186.203 223.679 190.746 229.521 204.86 247.674 218.888 265.893 233.008 284.04 237.732 290.11 238.714 290.043 242.813 283.435 261.692 252.995 280.525 222.526 299.374 192.066 299.987 191.075 300.562 190.059 301.202 189.086 305.405 182.694 307.719 182.648 312.135 189.008 340.359 229.656 368.568 270.315 396.746 310.995 397.754 312.451 399.239 313.711 399.438 317.358 390.87 307.94 383.172 299.477 375.233 290.756Z" transform="matrix(1 0 0 1.00073 0 -123.291)"/><path d="M159.896 183.411C162.44 187.948 161.315 191.75 158.496 195.546 161.802 198.691 164.959 201.894 163.986 207.007 162.917 212.624 159.627 215.889 153.852 216.219 148.721 216.513 143.56 216.262 138.414 216.356 135.581 216.409 134.661 215.005 134.677 212.371 134.734 202.74 134.684 193.108 134.722 183.476 134.727 182.04 134.555 180.54 136.361 179.691 140.246 177.866 156.251 180.093 159.896 183.411M143.665 208.671C146.399 210.596 149.452 209.781 152.316 209.384 154.761 209.046 155.799 207.097 155.651 204.587 155.514 202.278 154.325 200.956 152.112 200.402 144.941 198.608 142.753 200.467 143.665 208.671M150.967 186.287C148.34 185.773 145.268 183.873 143.467 187.169 142.541 188.865 142.22 191.941 144.3 193.054 146.729 194.352 149.905 194.463 152.223 192.389 154.37 190.468 154.033 188.306 150.967 186.287Z" transform="matrix(1 0 0 1.00073 0 -123.291)"/><path d="M262.51 189.172C265.176 187.741 267.502 187.676 270.057 189.022 269.072 192.794 266.34 195.11 264.284 197.806 262.399 200.277 262.196 202.266 264.213 204.879 266.791 208.219 269.774 211.385 271.326 215.666 262.245 218.887 260.427 210.757 255.886 206.239 254.875 208.465 255.329 210.581 255.332 212.57 255.337 215.36 254.1 216.358 251.381 216.364 248.535 216.371 247.61 215.088 247.627 212.419 247.694 201.935 247.71 191.449 247.632 180.966 247.611 178.139 248.861 177.07 251.539 177.147 254.271 177.226 255.346 178.617 255.308 181.269 255.237 186.251 255.288 191.235 255.288 197.721 258.147 194.292 260.181 191.852 262.51 189.172Z" transform="matrix(1 0 0 1.00073 0 -123.291)"/><path d="M196.799 196.713C197.818 201.994 195.359 207.498 199.892 211.714 200.725 212.489 200.624 214.443 199.63 215.446 198.061 217.028 195.646 217.117 194.033 216.223 190.87 214.469 188.299 215.276 185.257 216.454 180.602 218.258 175.413 215.883 174.01 211.852 172.171 206.571 174.241 202.314 179.712 200.419 181.744 199.715 183.889 199.343 185.972 198.783 187.303 198.426 188.709 197.921 188.431 196.205 188.104 194.188 186.373 194.386 184.876 194.376 182.723 194.362 181.168 195.738 179.482 196.764 177.9 197.727 176.709 197.555 175.718 195.933 174.827 194.475 173.729 192.925 175.444 191.494 179.521 188.091 184.286 187.014 189.475 187.979 194.033 188.826 196.297 191.775 196.799 196.713M182.522 210.073C187.823 210.89 188.951 209.784 188.577 204.139 182.001 204.744 181.508 205.153 182.522 210.073Z" transform="matrix(1 0 0 1.00073 0 -123.291)"/><path d="M235.321 202.104C235.313 205.746 235.237 208.907 235.318 212.064 235.389 214.835 234.594 216.387 231.394 216.41 228.191 216.434 227.427 214.98 227.522 212.142 227.655 208.156 227.656 204.156 227.461 200.174 227.335 197.606 226.608 194.925 223.471 194.679 220.338 194.432 218.658 196.592 217.905 199.399 216.764 203.647 217.49 208.003 217.376 212.307 217.308 214.862 216.682 216.338 213.728 216.368 210.666 216.4 209.61 215.098 209.652 212.182 209.745 205.697 209.611 199.21 209.694 192.725 209.751 188.213 212.378 186.609 216.558 188.734 217.845 189.388 218.575 189.72 220.044 189.203 230.233 185.618 235.149 189.191 235.316 200.125 235.324 200.624 235.319 201.123 235.321 202.104Z" transform="matrix(1 0 0 1.00073 0 -123.291)"/><path d="M384.073 328.906C386.878 326.852 385.246 324.03 385.652 321.562 385.908 320.002 385.99 318.458 387.974 318.324 390.085 318.181 391.047 319.525 391.057 321.414 391.11 331.065 391.1 340.717 391.061 350.368 391.053 352.399 389.629 353.949 387.906 353.134 384.864 351.695 382.542 353.376 379.884 353.884 375.84 354.656 372.252 353.51 369.743 350.083 366.196 345.239 366.126 337.077 369.447 332.113 372.404 327.692 376.776 326.692 384.073 328.906M380.789 349.283C385.679 346.146 387.197 339.718 384.149 335.051 382.179 332.033 378.07 331.13 375.472 333.387 371.734 336.637 372.733 341.043 373.372 345.06 373.924 348.531 376.619 349.851 380.789 349.283Z" transform="matrix(1 0 0 1.00073 0 -123.291)"/><path d="M203.557 332.89C206.142 332.679 206.704 331.276 206.701 329.403 206.699 327.741 206.685 326.075 206.777 324.417 206.885 322.49 206.486 319.99 209.51 320.12 211.956 320.225 212.124 322.317 212.131 324.203 212.158 332.682 212.159 341.161 212.142 349.64 212.137 351.647 211.657 353.349 209.09 353.169 206.681 353.001 206.821 351.154 206.762 349.501 206.708 348.006 206.747 346.509 206.749 345.012 206.755 337.368 206.756 337.368 199.228 337.355 191.374 337.341 191.512 337.345 191.268 346.743 191.211 348.945 193.278 352.956 189.023 353.093 184.547 353.237 186.136 349.073 186.069 346.621 185.876 339.477 185.959 332.324 186.052 325.175 186.079 323.126 185.619 320.251 188.683 320.135 191.966 320.01 191.319 322.914 191.343 324.958 191.455 334.311 190.468 332.776 203.557 332.89Z" transform="matrix(1 0 0 1.00073 0 -123.291)"/><path d="M261.96 328.355C273.738 326.332 280.964 333.504 278.437 344.158 276.85 350.85 271.709 354.808 265.508 354.112 258.549 353.332 254.822 348.999 254.676 341.609 254.564 335.955 255.63 330.962 261.96 328.355M271.172 347.652C273.719 344.13 273.867 340.261 272.559 336.318 271.29 332.497 266.607 330.925 263.151 332.992 260.02 334.865 258.799 342.072 260.91 346.223 262.733 349.808 265.87 350.433 271.172 347.652Z" transform="matrix(1 0 0 1.00073 0 -123.291)"/><path d="M324.613 360.006C322.315 363.521 319.473 364.669 315.83 363.523 314.847 363.214 313.982 362.611 314.168 361.39 314.304 360.498 314.938 359.845 315.841 359.8 320.681 359.559 320.606 356.105 320.605 352.657 320.605 345.846 320.591 339.035 320.651 332.225 320.667 330.47 320.337 328.125 323.029 328.156 325.736 328.188 325.349 330.572 325.303 332.292 325.061 341.405 326.054 350.542 324.613 360.006Z" transform="matrix(1 0 0 1.00073 0 -123.291)"/><path d="M322.207 318.688C324.427 318.59 325.909 319.156 326.021 321.26 326.1 322.737 325.239 323.74 323.775 324.075 322.367 324.397 321.114 324.084 320.411 322.713 319.498 320.932 319.899 319.544 322.207 318.688Z" transform="matrix(1 0 0 1.00073 0 -123.291)"/><path d="M260.408 320.432C262.429 318.318 264.195 318.354 265.401 320.644 266.232 322.221 265.536 323.693 263.747 324.032 261.321 324.492 259.925 323.452 260.408 320.432Z" transform="matrix(1 0 0 1.00073 0 -123.291)"/><path d="M272.66 320.405C273.11 323.414 271.694 324.477 269.288 323.999 267.545 323.653 266.81 322.096 267.616 320.566 268.829 318.262 270.648 318.36 272.66 320.405Z" transform="matrix(1 0 0 1.00073 0 -123.291)"/></g></svg>