<svg version="1.1" id="Layer_1" xmlns="http://www.w3.org/2000/svg" xmlns:xlink="http://www.w3.org/1999/xlink" x="0px" y="0px"
	 width="100%" viewBox="0 0 496 496" enable-background="new 0 0 496 496" xml:space="preserve">
<path fill="#000000" opacity="1.000000" stroke="none" 
	d="
M375.232605,290.756165 
	C363.386658,277.852570 351.783142,265.206940 340.169495,252.570602 
	C339.953125,252.335190 339.616425,252.210388 339.010864,251.829620 
	C336.173706,254.560562 336.064453,259.073334 333.029205,262.029236 
	C328.913605,259.371765 326.236206,255.502396 322.980988,252.268951 
	C319.199768,248.513000 315.478699,244.676895 311.996033,240.646988 
	C309.718079,238.011108 308.082245,238.401596 305.953339,240.725143 
	C302.240051,244.777969 298.343201,248.662796 294.514862,252.609894 
	C293.388214,253.771515 292.663361,255.451538 290.226776,255.664642 
	C287.754364,251.923004 285.152863,247.985947 282.150635,243.442459 
	C267.199280,265.264832 252.666809,286.475891 237.738235,308.265045 
	C228.591690,298.598999 220.055817,289.578339 211.476242,280.511475 
	C208.318741,282.291656 209.463043,286.065887 207.034225,287.960480 
	C204.364151,288.017456 202.729309,285.876221 200.753281,284.511932 
	C195.681610,281.010315 190.558319,277.553619 185.749725,273.710999 
	C182.424500,271.053772 179.706238,270.724152 176.009293,273.156311 
	C169.475113,277.455078 162.593994,281.226898 155.852386,285.209595 
	C154.297897,286.127960 152.842575,287.290192 151.039108,287.486420 
	C148.957642,286.270752 149.292664,283.834808 147.526169,281.759338 
	C132.458038,291.573029 117.351929,301.411438 102.138527,311.319733 
	C100.868904,308.873718 102.545815,308.120605 103.477722,307.160126 
	C128.772430,281.088806 154.083664,255.033524 179.403091,228.986237 
	C184.595688,223.644379 186.203354,223.679367 190.745712,229.521347 
	C204.859726,247.673584 218.887589,265.892792 233.008347,284.039764 
	C237.731766,290.109985 238.714157,290.043060 242.812546,283.434998 
	C261.691956,252.994629 280.524963,222.525513 299.373688,192.066132 
	C299.987000,191.075012 300.562134,190.059204 301.202118,189.085846 
	C305.404877,182.694122 307.718628,182.647781 312.134857,189.007889 
	C340.359436,229.655869 368.567932,270.315002 396.746002,310.995209 
	C397.754120,312.450592 399.238739,313.710663 399.438110,317.357819 
	C390.870453,307.939758 383.172211,299.477417 375.232605,290.756165 
z"/>
<path fill="#000000" opacity="1.000000" stroke="none" 
	d="
M159.895538,183.410583 
	C162.440231,187.947998 161.315018,191.749588 158.496124,195.545822 
	C161.801712,198.690582 164.958710,201.894257 163.986053,207.007202 
	C162.917480,212.624359 159.627228,215.888535 153.852448,216.219009 
	C148.720734,216.512711 143.559937,216.261932 138.413925,216.356461 
	C135.580948,216.408508 134.661301,215.005280 134.676987,212.370911 
	C134.734344,202.739609 134.683853,193.107681 134.721573,183.476196 
	C134.727188,182.039810 134.555145,180.539505 136.360596,179.691254 
	C140.245987,177.865784 156.250885,180.092514 159.895538,183.410583 
M143.665024,208.670807 
	C146.399368,210.595673 149.452118,209.780945 152.315506,209.384338 
	C154.761353,209.045578 155.798904,207.097183 155.650558,204.587173 
	C155.514114,202.278351 154.324844,200.955673 152.111664,200.401917 
	C144.941101,198.607712 142.753357,200.467026 143.665024,208.670807 
M150.967194,186.286896 
	C148.340378,185.773361 145.267822,183.872589 143.467453,187.168564 
	C142.541077,188.864517 142.219757,191.941360 144.300323,193.053772 
	C146.728943,194.352264 149.904755,194.463440 152.222839,192.389130 
	C154.369644,190.468079 154.033157,188.306442 150.967194,186.286896 
z"/>
<path fill="#000000" opacity="1.000000" stroke="none" 
	d="
M262.509705,189.172104 
	C265.176025,187.741028 267.502319,187.676285 270.056946,189.022049 
	C269.071564,192.793671 266.340363,195.109726 264.283813,197.806229 
	C262.399139,200.277328 262.196320,202.265976 264.213318,204.879028 
	C266.791382,208.218979 269.773865,211.385040 271.326355,215.666107 
	C262.245148,218.886627 260.426819,210.757477 255.885651,206.239212 
	C254.875061,208.465347 255.328735,210.581268 255.332336,212.569809 
	C255.337387,215.360458 254.099548,216.357819 251.381042,216.364258 
	C248.535446,216.370987 247.609741,215.088257 247.626770,212.418640 
	C247.693649,201.934570 247.709915,191.449463 247.631851,180.965591 
	C247.610794,178.139343 248.861099,177.069656 251.539337,177.147247 
	C254.270615,177.226410 255.346313,178.617432 255.308365,181.269196 
	C255.237061,186.251389 255.287811,191.235336 255.287811,197.720978 
	C258.146515,194.292160 260.180756,191.852234 262.509705,189.172104 
z"/>
<path fill="#000000" opacity="1.000000" stroke="none" 
	d="
M196.798767,196.713028 
	C197.818420,201.993530 195.358734,207.497513 199.891922,211.714005 
	C200.725098,212.488983 200.624313,214.443237 199.629532,215.446381 
	C198.060989,217.028091 195.646072,217.116882 194.033279,216.222626 
	C190.870209,214.468796 188.298950,215.275894 185.256989,216.454300 
	C180.601883,218.257568 175.413086,215.883499 174.009521,211.852432 
	C172.170654,206.571198 174.240875,202.314026 179.712387,200.418930 
	C181.743988,199.715256 183.888794,199.342667 185.972321,198.783173 
	C187.302567,198.425949 188.709152,197.920624 188.430771,196.204727 
	C188.103592,194.188248 186.373291,194.386200 184.875778,194.376175 
	C182.723480,194.361755 181.167694,195.737900 179.481796,196.764038 
	C177.900421,197.726562 176.708694,197.555008 175.718124,195.933197 
	C174.827225,194.474564 173.729309,192.925278 175.443848,191.494324 
	C179.521042,188.091446 184.285950,187.014008 189.475418,187.978958 
	C194.033401,188.826447 196.297424,191.774918 196.798767,196.713028 
M182.522171,210.073273 
	C187.823135,210.889633 188.951462,209.783783 188.577164,204.138840 
	C182.000549,204.743607 181.507935,205.153000 182.522171,210.073273 
z"/>
<path fill="#000000" opacity="1.000000" stroke="none" 
	d="
M235.320694,202.103973 
	C235.313004,205.745514 235.236679,208.906982 235.317581,212.064392 
	C235.388550,214.834503 234.593994,216.386795 231.394287,216.410370 
	C228.191132,216.433929 227.426743,214.980499 227.521576,212.141937 
	C227.654694,208.156342 227.656296,204.155533 227.461014,200.173645 
	C227.335068,197.605621 226.607956,194.925003 223.471344,194.678543 
	C220.337555,194.432327 218.658340,196.592255 217.904587,199.398987 
	C216.763916,203.646515 217.489746,208.002563 217.375977,212.306992 
	C217.308426,214.862396 216.682220,216.337570 213.728317,216.368378 
	C210.666107,216.400345 209.609558,215.098312 209.651657,212.181595 
	C209.745255,205.697205 209.611450,199.209656 209.693512,192.724945 
	C209.750595,188.213394 212.378113,186.609497 216.557709,188.733963 
	C217.845245,189.388412 218.575409,189.719696 220.044006,189.203003 
	C230.233414,185.617996 235.148529,189.191025 235.316406,200.125443 
	C235.324066,200.624237 235.319351,201.123230 235.320694,202.103973 
z"/>
<path fill="#000000" opacity="1.000000" stroke="none" 
	d="
M384.072571,328.906311 
	C386.877625,326.851715 385.246429,324.029877 385.651855,321.561798 
	C385.908020,320.002289 385.990082,318.458069 387.974060,318.323608 
	C390.084808,318.180573 391.046661,319.525391 391.057007,321.414185 
	C391.109985,331.065338 391.099518,340.717010 391.060852,350.368317 
	C391.052704,352.399231 389.628845,353.948761 387.906036,353.133850 
	C384.863800,351.694763 382.541992,353.376251 379.884094,353.883575 
	C375.839813,354.655518 372.251984,353.510498 369.742706,350.083191 
	C366.196167,345.239166 366.126282,337.077209 369.446899,332.112732 
	C372.403839,327.691986 376.776062,326.691925 384.072571,328.906311 
M380.788940,349.283386 
	C385.678833,346.145508 387.196594,339.717560 384.149414,335.050934 
	C382.179077,332.033386 378.069550,331.129547 375.471771,333.387482 
	C371.733582,336.636688 372.733276,341.043427 373.372070,345.059509 
	C373.924194,348.530701 376.619446,349.850677 380.788940,349.283386 
z"/>
<path fill="#000000" opacity="1.000000" stroke="none" 
	d="
M203.557343,332.890320 
	C206.142029,332.678589 206.703827,331.275879 206.701324,329.403015 
	C206.699112,327.740631 206.684509,326.075073 206.777161,324.416595 
	C206.884735,322.490234 206.486298,319.990295 209.510422,320.120087 
	C211.955948,320.225037 212.124344,322.316925 212.130524,324.202820 
	C212.158340,332.681885 212.159302,341.161163 212.141510,349.640259 
	C212.137299,351.646698 211.656662,353.349304 209.089981,353.169403 
	C206.680618,353.000519 206.820923,351.154388 206.761520,349.500916 
	C206.707825,348.006470 206.747223,346.508667 206.748535,345.012329 
	C206.755234,337.368073 206.755554,337.368073 199.228134,337.354980 
	C191.373642,337.341339 191.511963,337.344940 191.267883,346.743500 
	C191.210709,348.945068 193.277771,352.955536 189.022690,353.092590 
	C184.547348,353.236725 186.135880,349.072906 186.069443,346.620941 
	C185.875854,339.477112 185.959122,332.323608 186.052368,325.175476 
	C186.079086,323.126251 185.618866,320.251190 188.683136,320.135010 
	C191.965973,320.010498 191.318726,322.914337 191.343094,324.958496 
	C191.454605,334.311249 190.467819,332.775726 203.557343,332.890320 
z"/>
<path fill="#000000" opacity="1.000000" stroke="none" 
	d="
M261.959839,328.354675 
	C273.737976,326.332306 280.964417,333.503601 278.437103,344.158234 
	C276.849792,350.850037 271.709167,354.807892 265.508209,354.112366 
	C258.548706,353.331757 254.822403,348.998505 254.675903,341.608795 
	C254.563828,335.955139 255.629761,330.961884 261.959839,328.354675 
M271.172394,347.652496 
	C273.718811,344.130096 273.867432,340.260620 272.558777,336.318268 
	C271.290436,332.497223 266.607147,330.925140 263.151245,332.992126 
	C260.020172,334.864807 258.799316,342.072449 260.910126,346.223145 
	C262.733002,349.807648 265.869690,350.433044 271.172394,347.652496 
z"/>
<path fill="#000000" opacity="1.000000" stroke="none" 
	d="
M324.612854,360.006104 
	C322.314545,363.521301 319.473328,364.668976 315.829620,363.522949 
	C314.847198,363.213959 313.982483,362.610809 314.168060,361.389923 
	C314.303741,360.497589 314.937866,359.845398 315.841492,359.800415 
	C320.681458,359.559326 320.605988,356.104675 320.605499,352.657043 
	C320.604553,345.846344 320.591309,339.035339 320.651489,332.225098 
	C320.666992,330.469940 320.337128,328.125336 323.029022,328.156403 
	C325.735870,328.187683 325.349152,330.572113 325.303375,332.291687 
	C325.060852,341.405457 326.053528,350.541565 324.612854,360.006104 
z"/>
<path fill="#000000" opacity="1.000000" stroke="none" 
	d="
M322.206879,318.687561 
	C324.426910,318.590485 325.908539,319.156067 326.020782,321.259521 
	C326.099579,322.737000 325.238770,323.739838 323.775360,324.074646 
	C322.366760,324.396912 321.114227,324.084229 320.410980,322.712799 
	C319.497986,320.932373 319.899078,319.543823 322.206879,318.687561 
z"/>
<path fill="#000000" opacity="1.000000" stroke="none" 
	d="
M260.408203,320.432190 
	C262.429382,318.318146 264.195282,318.354401 265.401215,320.644226 
	C266.231506,322.220856 265.535767,323.693207 263.747467,324.032013 
	C261.320831,324.491791 259.925110,323.452209 260.408203,320.432190 
z"/>
<path fill="#000000" opacity="1.000000" stroke="none" 
	d="
M272.660095,320.404541 
	C273.110046,323.414459 271.693726,324.476562 269.287720,323.998901 
	C267.545135,323.652954 266.810486,322.096497 267.615967,320.566101 
	C268.828827,318.261688 270.647888,318.360291 272.660095,320.404541 
z"/>
</svg>